<svg xmlns="http://www.w3.org/2000/svg" width="2200" height="900" viewBox="0 0 2200 900">
  <rect width="100%" height="100%" fill="none"/>
  <g fill="none" stroke="#0A4B86" stroke-width="10" stroke-linecap="round" stroke-linejoin="round">
    <path d="M300 220 C560 120, 830 120, 1080 225"/>
    <path d="M1080 225 C1120 240, 1140 250, 1160 255"/>
    <path d="M355 250 C520 185, 740 165, 980 205"/>
    <path d="M980 205 C1090 225, 1210 270, 1310 330"/>
    <path d="M1110 320 C1230 295, 1320 285, 1410 315"/>
    <path d="M1320 250 C1290 295, 1288 308, 1288 308"/>
    <path d="M1290 220 A105 35 0 0 1 1500 220"/>
    <circle cx="370" cy="235" r="70"/>
    <circle cx="520" cy="229" r="64"/>
    <circle cx="1440" cy="264" r="59"/>
    <path d="M1418 172 L1452 210 L1490 210 L1450 210 L1420 248 L1386 210 L1416 210 Z"/>
  </g>
  <g font-family="Arial Black, Arial, Helvetica, sans-serif" font-weight="900" text-anchor="middle">
    <text x="1100" y="540" font-size="210" fill="#083C6B">SURROUND</text>
    <text x="1100" y="760" font-size="260" fill="#0A4B86">AUTO</text>
  </g>
  <path d="M640 800 C850 770, 1130 770, 1410 800" fill="none" stroke="#1D6BB2" stroke-width="14" stroke-linecap="round"/>
</svg>
